<?xml version="1.0" encoding="utf-8"?>
<!-- Generator: Adobe Illustrator 16.0.0, SVG Export Plug-In . SVG Version: 6.00 Build 0)  -->
<!DOCTYPE svg PUBLIC "-//W3C//DTD SVG 1.1//EN" "http://www.w3.org/Graphics/SVG/1.1/DTD/svg11.dtd">
<svg version="1.1" id="Layer_1" xmlns="http://www.w3.org/2000/svg" xmlns:xlink="http://www.w3.org/1999/xlink" x="0px" y="0px"
	 width="100px" height="100px" viewBox="0 0 100 100" enable-background="new 0 0 100 100" xml:space="preserve">
<path fill="#7DA3A8" d="M50,2C23.533,2,2,23.533,2,50s21.533,48,48,48s48-21.533,48-48S76.467,2,50,2z M50.691,34.847l17.634,17.631
	c0.19,0.19,0.286,0.441,0.286,0.691c0,0.251-0.096,0.502-0.286,0.693c-0.384,0.382-1.003,0.382-1.386,0L50,36.924L33.06,53.863
	c-0.383,0.382-1.002,0.382-1.385,0c-0.383-0.383-0.383-1.004,0-1.387l17.633-17.63C49.69,34.464,50.31,34.464,50.691,34.847z
	 M50,48.214l-16.94,16.94c-0.383,0.383-1.002,0.383-1.385,0c-0.383-0.383-0.383-1.004,0-1.387l17.633-17.632
	c0.382-0.383,1.002-0.383,1.385,0l17.633,17.632c0.191,0.191,0.287,0.442,0.287,0.692c0,0.251-0.096,0.502-0.287,0.692
	c-0.383,0.384-1.003,0.384-1.385,0L50,48.214z"/>
</svg>
